PathFileType	4	(X/Y/Z)	Kaydara																																																																																																																									
DataRate	CameraRate	NumFrames	NumMarkers	Units	OrigDataRate	OrigDataStartFrame	OrigNumFrames																																																																																																																					
30	30	4	41	mm	30	67	132																																																																																																																					
Frame#	Time	SALE_LFHD			SALE_RFHD			SALE_LBHD			SALE_RBHD			SALE_LFTShould			SALE_RFTShould			SALE_LRRShould			SALE_RRRShould			SALE_T10			SALE_STRN			SALE_TRUN			SALE_LSHO			SALE_LUPA			SALE_LELB			SALE_LFRM			SALE_LWRA			SALE_LWRB			SALE_LFIN			SALE_RSHO			SALE_RUPA			SALE_RELB			SALE_RFRM			SALE_RWRB			SALE_RFIN			SALE_LFWT			SALE_RFWT			SALE_LBWT			SALE_RBWT			SALE_LTHI			SALE_LKNE			SALE_RWRA			SALE_LSHN			SALE_LANK			SALE_LHEE			SALE_LTOE			SALE_RTHI			SALE_RKNE			SALE_RSHN			SALE_RANK			SALE_RHEE			SALE_RTOE		
		X1	Y1	Z1	X2	Y2	Z2	X3	Y3	Z3	X4	Y4	Z4	X5	Y5	Z5	X6	Y6	Z6	X7	Y7	Z7	X8	Y8	Z8	X9	Y9	Z9	X10	Y10	Z10	X11	Y11	Z11	X12	Y12	Z12	X13	Y13	Z13	X14	Y14	Z14	X15	Y15	Z15	X16	Y16	Z16	X17	Y17	Z17	X18	Y18	Z18	X19	Y19	Z19	X20	Y20	Z20	X21	Y21	Z21	X22	Y22	Z22	X23	Y23	Z23	X24	Y24	Z24	X25	Y25	Z25	X26	Y26	Z26	X27	Y27	Z27	X28	Y28	Z28	X29	Y29	Z29	X30	Y30	Z30	X31	Y31	Z31	X32	Y32	Z32	X33	Y33	Z33	X34	Y34	Z34	X35	Y35	Z35	X36	Y36	Z36	X37	Y37	Z37	X38	Y38	Z38	X39	Y39	Z39	X40	Y40	Z40	X41	Y41	Z41
																																																																																																																												
67	2.2	247.24691	1580.67169	-1003.24623	117.65329	1582.13837	-977.66068	217.29511	1545.22308	-1128.96996	94.62249	1547.21649	-1098.19984	256.1475	1308.61115	-1041.44043	121.29535	1290.87143	-997.15942	201.37611	1392.20276	-1127.6223	67.13336	1382.65991	-1069.44679	108.34803	1252.77748	-1197.86865	196.8671	1216.86317	-995.28824	204.94833	1123.11234	-980.97824	320.96802	1372.68951	-1140.30663	359.76742	1264.08997	-1297.18597	374.50836	1195.35095	-1379.70535	438.53695	1162.73972	-1466.30524	539.42463	1040.53299	-1524.07745	502.87712	1082.81937	-1575.23743	559.17076	1080.09987	-1593.78036	3.34196	1336.69891	-1006.87996	-68.83283	1111.22047	-1007.09297	-83.89866	1036.01303	-917.65022	-73.27373	933.91861	-861.33293	-55.96322	855.94887	-737.80235	-48.03808	871.37512	-672.77115	298.46539	915.85503	-1107.72545	18.77787	918.68256	-1088.73291	232.08773	975.41374	-1269.7097	56.72238	995.3656	-1251.72623	285.1025	609.95491	-1102.6123	282.0458	533.80653	-916.60172	3.24143	899.24362	-718.22212	278.83518	331.28105	-856.92253	277.98075	139.99211	-860.5703	242.10787	71.54038	-911.88049	253.07264	133.78281	-722.30515	1.595	718.43719	-1304.27094	27.87161	536.1665	-1268.95096	83.68662	363.51162	-1360.24826	43.59662	143.87062	-1502.29172	69.45802	70.13642	-1405.19104	82.87286	111.27326	-1591.17111
68	2.233	254.83582	1574.68048	-951.63643	125.16328	1576.85028	-925.89973	224.6924	1540.21149	-1077.50336	101.97309	1542.88879	-1046.72264	259.25327	1303.35846	-990.16129	124.75142	1288.53271	-943.96667	204.33451	1383.66669	-1078.0793	70.59462	1379.31412	-1019.82574	109.24829	1244.20876	-1143.84018	198.49024	1214.07524	-940.9346	205.10637	1121.29097	-923.11424	322.21558	1364.31808	-1091.8856	359.04633	1257.65076	-1248.26904	374.16691	1189.54063	-1330.75134	433.8155	1162.60834	-1420.99213	544.10294	1050.93544	-1488.70087	497.04601	1089.89395	-1534.14124	548.93154	1102.24548	-1552.88254	6.77614	1337.34558	-955.97054	-66.04259	1112.16377	-949.45892	-81.02242	1039.06212	-859.06067	-68.37348	940.32501	-798.73627	-47.82834	868.14415	-671.4785	-41.89979	893.5569	-609.03656	296.44855	908.57147	-1044.82018	17.56897	903.67424	-1028.60825	231.98959	967.11044	-1208.27179	55.92002	983.95393	-1193.31734	289.16628	607.24659	-1036.15601	282.44709	526.40949	-856.44928	9.32805	914.79523	-655.92018	281.41811	324.81277	-793.41537	278.6618	133.77908	-790.26833	241.26534	63.72059	-838.76915	256.56651	131.64124	-651.58974	4.72243	712.42561	-1251.64619	28.88482	530.31967	-1221.28281	84.7471	360.86681	-1325.98099	39.39554	156.21386	-1486.70395	68.09914	69.60783	-1400.05524	74.4415	132.59851	-1579.47784
69	2.267	262.44936	1577.43515	-898.74496	132.51715	1579.97986	-874.75159	233.98008	1543.42422	-1025.05333	110.94852	1546.47293	-995.98335	263.83196	1307.35641	-934.63959	127.63133	1298.82324	-887.94724	208.90223	1381.19812	-1026.19698	75.73193	1383.14209	-969.8497	112.70607	1240.85243	-1085.10437	201.09713	1222.62459	-881.10138	205.84637	1130.28069	-859.21127	325.24452	1361.56693	-1039.7963	359.42661	1251.65344	-1190.89134	375.45067	1182.27501	-1272.48032	431.23363	1154.41139	-1363.04565	542.04533	1044.39056	-1434.55215	491.0339	1081.20811	-1477.02637	540.06317	1097.81212	-1496.38245	9.76056	1346.92535	-904.89868	-60.70113	1118.83179	-900.48729	-76.33577	1044.58801	-812.32224	-62.97428	944.17603	-755.11841	-43.66192	868.59772	-628.25901	-38.82289	895.19974	-566.48361	294.48895	908.3593	-973.33801	13.32215	897.99492	-965.31754	232.75084	967.0739	-1137.78152	57.38397	979.24957	-1125.43747	293.1109	606.14006	-975.89996	283.3802	516.13029	-804.12003	12.08515	916.72516	-612.25727	278.53399	304.87509	-761.18851	271.71913	113.77858	-778.80524	233.35258	48.62444	-833.59642	246.73815	97.66915	-642.11098	10.54869	705.51041	-1189.31908	32.2562	525.76069	-1162.42813	88.23272	359.8896	-1280.04944	36.16316	174.94314	-1462.52106	66.45946	68.19339	-1393.68561	70.09239	165.47241	-1556.37039
70	2.3	269.54361	1586.81915	-845.24704	138.95694	1589.58099	-825.0251	244.49423	1551.80405	-971.98586	120.67661	1555.08698	-946.47133	268.6788	1315.16983	-874.15604	133.6146	1312.57126	-829.95796	215.81366	1384.57809	-970.60623	81.92173	1392.12509	-916.90453	117.41611	1242.92557	-1023.47717	203.54971	1235.12756	-816.86501	206.40371	1144.19456	-789.61304	331.87347	1362.11639	-981.18362	362.26578	1244.47891	-1126.64246	374.34242	1170.58594	-1205.08324	428.57624	1136.46141	-1294.98505	535.73799	1021.03264	-1362.49573	484.68983	1056.15601	-1405.91095	533.61683	1068.93311	-1429.03748	12.55494	1358.95111	-850.89523	-56.53298	1130.11391	-855.1693	-74.01891	1050.07912	-770.44861	-62.04213	945.85068	-720.81398	-43.84349	859.77028	-601.0511	-36.7994	878.51852	-536.28448	293.23788	913.93227	-903.18832	15.71525	894.5401	-894.38789	234.32386	977.77565	-1065.6559	53.96441	980.74577	-1054.06456	292.21924	607.37953	-927.89757	280.65826	501.80954	-760.1757	13.65638	904.69109	-580.797	273.49567	300.19547	-728.45436	267.68642	113.61123	-755.75089	232.26549	56.84793	-820.80139	241.51451	79.69289	-625.05157	17.75326	702.51381	-1118.01476	44.09388	515.64564	-1083.29956	92.0564	353.91624	-1215.38597	29.92969	198.38467	-1421.34613	64.51033	65.49059	-1386.75278	61.55586	208.55869	-1512.91
